<svg xmlns="http://www.w3.org/2000/svg" xmlns:xlink="http://www.w3.org/1999/xlink"
     version="1.1" x="0px" y="0px" viewBox="0 0 100 125" style="enable-background:new 0 0 100 100;"
     xml:space="preserve"><path d="M67,38h-5.7l-0.6-2.2c-0.6-2.2-2.6-3.8-4.9-3.8H44.1c-2.3,0-4.3,1.6-4.9,3.8L38.7,38H33c-2.8,0-5,2.2-5,5v20  c0,2.8,2.2,5,5,5h34c2.8,0,5-2.2,5-5V43C72,40.2,69.8,38,67,38z M70,63c0,1.7-1.3,3-3,3H33c-1.7,0-3-1.3-3-3V43c0-1.7,1.3-3,3-3h6.5  c0.5,0,0.9-0.3,1-0.8l0.7-3c0.3-1.3,1.5-2.3,2.9-2.3h11.8c1.4,0,2.6,0.9,2.9,2.3l0.7,3c0.1,0.4,0.5,0.8,1,0.8H67c1.7,0,3,1.3,3,3V63  z M50,42c-5.5,0-10,4.5-10,10s4.5,10,10,10s10-4.5,10-10S55.5,42,50,42z M50,60c-4.4,0-8-3.6-8-8s3.6-8,8-8s8,3.6,8,8S54.4,60,50,60  z M36,44c0,1.1-0.9,2-2,2s-2-0.9-2-2s0.9-2,2-2S36,42.9,36,44z"/>
</svg>
