<svg xmlns:dc="http://purl.org/dc/elements/1.1/" xmlns:cc="http://creativecommons.org/ns#"
     xmlns:rdf="http://www.w3.org/1999/02/22-rdf-syntax-ns#" xmlns:svg="http://www.w3.org/2000/svg"
     xmlns="http://www.w3.org/2000/svg" xmlns:sodipodi="http://sodipodi.sourceforge.net/DTD/sodipodi-0.dtd"
     xmlns:inkscape="http://www.inkscape.org/namespaces/inkscape" version="1.1" x="0px" y="0px" viewBox="0 0 100 125">
  <g transform="translate(0,-952.36218)">
    <path
      style="text-indent:0;text-transform:none;direction:ltr;block-progression:tb;baseline-shift:baseline;color:#000000;enable-background:accumulate;"
      d="m 50,966.3622 c -6.6514,0 -13.3327,2.52023 -18.4062,7.59375 -4.1108,4.11078 -6.5008,9.27887 -7.2813,14.62501 C 13.9896,989.90246 6,998.68826 6,1009.3622 c 0,11.586 9.4139,21 21,21 l 11,0 a 1.0001,1.0001 0 1 0 0,-2 l -11,0 c -10.5051,0 -19,-8.4949 -19,-19 0,-9.91873 7.5688,-18.05853 17.25,-18.93754 a 1.0001,1.0001 0 0 0 0.9062,-0.875 c 0.602,-5.18539 2.8943,-10.20668 6.875,-14.18746 4.6897,-4.68949 10.824,-7 16.9688,-7 6.1448,0 12.2466,2.30903 16.9375,7 5.4226,5.42264 7.721,12.81476 6.875,19.87496 a 1.0001,1.0001 0 0 0 1,1.125 l 1.1875,0 c 8.8813,0 16,7.11874 16,16.00004 0,8.8813 -7.1187,16 -16,16 l -14,0 a 1.0001,1.0001 0 1 0 0,2 l 14,0 c 9.9547,0 18,-8.0453 18,-18 0,-9.9547 -8.0453,-18.00004 -18,-18.00004 l -0.1875,0 C 76.3766,987.05088 73.9611,979.54201 68.375,973.95595 63.3031,968.88391 56.6514,966.3622 50,966.3622 z m -0.094,36 c -0.236,0.02 -0.4408,0.1273 -0.5937,0.25 l -11,10 c -0.3882,0.3591 -0.4242,1.0515 -0.062,1.4375 0.3614,0.386 1.0537,0.3946 1.4375,0.031 l 9.3122,-8.4685 0,31.75 c 0,0.5523 0.4477,1 1,1 0.5524,0 1,-0.4477 1,-1 l 0,-31.75 9.3125,8.4687 c 0.3838,0.3637 1.076,0.3551 1.4375,-0.031 0.3614,-0.3859 0.3488,-1.0237 -0.062,-1.4374 l -11,-10 c -0.2782,-0.2046 -0.5452,-0.2705 -0.7813,-0.25 z"
      fill="#000000" fill-opacity="1" stroke="none" marker="none" visibility="visible" display="inline"
      overflow="visible"/>
  </g>
</svg>
